<svg width="1711" height="2480" xmlns="http://www.w3.org/2000/svg" xmlns:xlink="http://www.w3.org/1999/xlink" xml:space="preserve" overflow="hidden"><g transform="translate(-1271 2)"><path d="M1874.5 111C1874.5 49.9724 1924.2 0.499836 1985.5 0.499836 2046.8 0.499836 2096.5 49.9724 2096.5 111 2096.5 172.027 2046.8 221.5 1985.5 221.5 1924.2 221.5 1874.5 172.027 1874.5 111Z" stroke="#4EA72E" stroke-width="4.58333" stroke-miterlimit="8" fill="#D9F2D0" fill-rule="evenodd"/><text font-family="Segoe UI Semibold,Segoe UI Semibold_MSFontService,sans-serif" font-weight="600" font-size="41" transform="matrix(1 0 0 1 1940.26 126)">Start</text><path d="M1591.5 481.5 1626.25 342.5 2378.5 342.5 2343.75 481.5Z" stroke="#0F9ED5" stroke-width="4.58333" stroke-miterlimit="8" fill="#DCEAF7" fill-rule="evenodd"/><text font-family="Segoe UI Semibold,Segoe UI Semibold_MSFontService,sans-serif" font-weight="600" font-size="41" transform="matrix(1 0 0 1 1850.03 402)">Configuration:</text><text font-family="Segoe UI,Segoe UI_MSFontService,sans-serif" font-style="italic" font-weight="400" font-size="41" transform="matrix(1 0 0 1 1725.13 452)">scriptMode, input parameters</text><path d="M1703.5 620.667C1703.5 610.634 1711.63 602.5 1721.67 602.5L2249.33 602.5C2259.37 602.5 2267.5 610.634 2267.5 620.667L2267.5 693.333C2267.5 703.366 2259.37 711.5 2249.33 711.5L1721.67 711.5C1711.63 711.5 1703.5 703.366 1703.5 693.333Z" stroke="#0F9ED5" stroke-width="4.58333" stroke-miterlimit="8" fill="#DCEAF7" fill-rule="evenodd"/><text font-family="Segoe UI Semibold,Segoe UI Semibold_MSFontService,sans-serif" font-weight="600" font-size="41" transform="matrix(1 0 0 1 1846.02 672)">Authentication</text><path d="M1703.5 970.5 1985.5 832.5 2267.5 970.5 1985.5 1108.5Z" stroke="#E97132" stroke-width="4.58333" stroke-miterlimit="8" fill="#FBE3D6" fill-rule="evenodd"/><text font-family="Segoe UI Semibold,Segoe UI Semibold_MSFontService,sans-serif" font-weight="600" font-size="41" transform="matrix(1 0 0 1 1935.11 936)">Input </text><text font-family="Segoe UI Semibold,Segoe UI Semibold_MSFontService,sans-serif" font-weight="600" font-size="41" transform="matrix(1 0 0 1 1878.96 986)">parameters </text><text font-family="Segoe UI Semibold,Segoe UI Semibold_MSFontService,sans-serif" font-weight="600" font-size="41" transform="matrix(1 0 0 1 1956.88 1035)">OK</text><path d="M1874.5 2365C1874.5 2303.97 1924.2 2254.5 1985.5 2254.5 2046.8 2254.5 2096.5 2303.97 2096.5 2365 2096.5 2426.03 2046.8 2475.5 1985.5 2475.5 1924.2 2475.5 1874.5 2426.03 1874.5 2365Z" stroke="#FF0000" stroke-width="4.58333" stroke-miterlimit="8" fill="#FFD9D9" fill-rule="evenodd"/><text font-family="Segoe UI Semibold,Segoe UI Semibold_MSFontService,sans-serif" font-weight="600" font-size="41" transform="matrix(1 0 0 1 1941.69 2380)">Stop</text><path d="M1703.5 1367.5 1985.5 1229.5 2267.5 1367.5 1985.5 1505.5Z" stroke="#E97132" stroke-width="4.58333" stroke-miterlimit="8" fill="#FBE3D6" fill-rule="evenodd"/><text font-family="Segoe UI Semibold,Segoe UI Semibold_MSFontService,sans-serif" font-weight="600" font-size="41" transform="matrix(1 0 0 1 1878.67 1358)">scriptMode </text><text font-family="Segoe UI Semibold,Segoe UI Semibold_MSFontService,sans-serif" font-weight="600" font-size="41" transform="matrix(1 0 0 1 1906.17 1408)">Selected</text><path d="M1591.5 1645.5C1591.5 1635.56 1599.56 1627.5 1609.5 1627.5L2360.5 1627.5C2370.44 1627.5 2378.5 1635.56 2378.5 1645.5L2378.5 1717.5C2378.5 1727.44 2370.44 1735.5 2360.5 1735.5L1609.5 1735.5C1599.56 1735.5 1591.5 1727.44 1591.5 1717.5Z" stroke="#0F9ED5" stroke-width="4.58333" stroke-miterlimit="8" fill="#215F9A" fill-rule="evenodd"/><text fill="#FFFFFF" font-family="Segoe UI Semibold,Segoe UI Semibold_MSFontService,sans-serif" font-weight="600" font-size="41" transform="matrix(1 0 0 1 1679.3 1696)">Subprocess: Process Workspaces</text><path d="M1703.5 1995.5 1985.5 1857.5 2267.5 1995.5 1985.5 2133.5Z" stroke="#E97132" stroke-width="4.58333" stroke-miterlimit="8" fill="#FBE3D6" fill-rule="evenodd"/><text font-family="Segoe UI Semibold,Segoe UI Semibold_MSFontService,sans-serif" font-weight="600" font-size="41" transform="matrix(1 0 0 1 1918.2 1960)">Output </text><text font-family="Segoe UI Semibold,Segoe UI Semibold_MSFontService,sans-serif" font-weight="600" font-size="41" transform="matrix(1 0 0 1 1942.27 2010)">path </text><text font-family="Segoe UI Semibold,Segoe UI Semibold_MSFontService,sans-serif" font-weight="600" font-size="41" transform="matrix(1 0 0 1 1901.02 2059)">provided</text><path d="M1988.94 221.5 1988.94 319.74 1982.06 319.74 1982.06 221.5ZM1999.25 315.157 1985.5 342.657 1971.75 315.157Z" fill="#156082"/><path d="M1988.94 481.5 1988.94 579.74 1982.06 579.74 1982.06 481.5ZM1999.25 575.157 1985.5 602.657 1971.75 575.157Z" fill="#156082"/><path d="M1988.94 711.5 1988.94 809.74 1982.06 809.74 1982.06 711.5ZM1999.25 805.157 1985.5 832.657 1971.75 805.157Z" fill="#156082"/><path d="M1988.94 1108.5 1988.94 1206.74 1982.06 1206.74 1982.06 1108.5ZM1999.25 1202.16 1985.5 1229.66 1971.75 1202.16Z" fill="#156082"/><path d="M1988.94 1505.5 1988.94 1603.74 1982.06 1603.74 1982.06 1505.5ZM1999.25 1599.16 1985.5 1626.66 1971.75 1599.16Z" fill="#156082"/><path d="M1988.94 1735.5 1988.94 1833.74 1982.06 1833.74 1982.06 1735.5ZM1999.25 1829.16 1985.5 1856.66 1971.75 1829.16Z" fill="#156082"/><path d="M1988.94 2133.5 1988.94 2231.74 1982.06 2231.74 1982.06 2133.5ZM1999.25 2227.16 1985.5 2254.66 1971.75 2227.16Z" fill="#156082"/><path d="M1703.5 973.937 1274.5 973.937 1277.94 970.5 1277.94 2364.83 1274.5 2361.39 1852.18 2361.39 1852.18 2368.27 1271.06 2368.27 1271.06 967.062 1703.5 967.062ZM1847.6 2351.08 1875.1 2364.83 1847.6 2378.58Z" fill="#156082"/><path d="M2415.5 1517.83C2415.5 1504.39 2426.39 1493.5 2439.83 1493.5L2955.17 1493.5C2968.61 1493.5 2979.5 1504.39 2979.5 1517.83L2979.5 1615.17C2979.5 1628.61 2968.61 1639.5 2955.17 1639.5L2439.83 1639.5C2426.39 1639.5 2415.5 1628.61 2415.5 1615.17Z" stroke="#0F9ED5" stroke-width="4.58333" stroke-miterlimit="8" fill="#DCEAF7" fill-rule="evenodd"/><text font-family="Segoe UI Semibold,Segoe UI Semibold_MSFontService,sans-serif" font-weight="600" font-size="41" transform="matrix(1 0 0 1 2494.96 1556)">Get Workspaces from </text><text font-family="Segoe UI Semibold,Segoe UI Semibold_MSFontService,sans-serif" font-weight="600" font-size="41" transform="matrix(1 0 0 1 2616.99 1606)">Capacity</text><path d="M2267.5 1364.06 2701.04 1364.06 2701.04 1470.65 2694.16 1470.65 2694.16 1367.5 2697.6 1370.94 2267.5 1370.94ZM2711.35 1466.07 2697.6 1493.57 2683.85 1466.07Z" fill="#156082"/><path d="M2700.66 1639.5 2700.66 1685.41 2401.42 1685.41 2401.42 1678.53 2697.23 1678.53 2693.79 1681.97 2693.79 1639.5ZM2406 1695.72 2378.5 1681.97 2406 1668.22Z" fill="#156082"/><path d="M2415.5 2113.67C2415.5 2103.63 2423.63 2095.5 2433.67 2095.5L2961.33 2095.5C2971.37 2095.5 2979.5 2103.63 2979.5 2113.67L2979.5 2186.33C2979.5 2196.37 2971.37 2204.5 2961.33 2204.5L2433.67 2204.5C2423.63 2204.5 2415.5 2196.37 2415.5 2186.33Z" stroke="#0F9ED5" stroke-width="4.58333" stroke-miterlimit="8" fill="#DCEAF7" fill-rule="evenodd"/><text font-family="Segoe UI Semibold,Segoe UI Semibold_MSFontService,sans-serif" font-weight="600" font-size="41" transform="matrix(1 0 0 1 2491.24 2165)">Save logs to *.csv files</text><path d="M2267.5 1992.06 2701.04 1992.06 2701.04 2073.35 2694.16 2073.35 2694.16 1995.5 2697.6 1998.94 2267.5 1998.94ZM2711.35 2068.77 2697.6 2096.27 2683.85 2068.77Z" fill="#156082"/><path d="M2701.64 2204.5 2701.64 2368.03 2119.42 2368.03 2119.42 2361.15 2698.2 2361.15 2694.76 2364.59 2694.76 2204.5ZM2124 2378.34 2096.5 2364.59 2124 2350.84Z" fill="#156082"/><text font-family="Segoe UI Semibold,Segoe UI Semibold_MSFontService,sans-serif" font-weight="600" font-size="41" transform="matrix(1 0 0 1 1600.48 943)">No</text><text font-family="Segoe UI Semibold,Segoe UI Semibold_MSFontService,sans-serif" font-weight="600" font-size="41" transform="matrix(1 0 0 1 2029.05 1175)">Yes</text><text font-family="Segoe UI Semibold,Segoe UI Semibold_MSFontService,sans-serif" font-weight="600" font-size="41" transform="matrix(1 0 0 1 2308.99 1340)">0</text><text font-family="Segoe UI Semibold,Segoe UI Semibold_MSFontService,sans-serif" font-weight="600" font-size="41" transform="matrix(1 0 0 1 2052.54 1575)">1</text><text font-family="Segoe UI Semibold,Segoe UI Semibold_MSFontService,sans-serif" font-weight="600" font-size="41" transform="matrix(1 0 0 1 2294.98 1962)">Yes</text><text font-family="Segoe UI Semibold,Segoe UI Semibold_MSFontService,sans-serif" font-weight="600" font-size="41" transform="matrix(1 0 0 1 2023.43 2200)">No</text></g></svg>