<svg width="2760" height="2566" xmlns="http://www.w3.org/2000/svg" xmlns:xlink="http://www.w3.org/1999/xlink" xml:space="preserve" overflow="hidden"><g transform="translate(-881 80)"><path d="M2238.5 415.667C2238.5 405.634 2246.63 397.5 2256.67 397.5L2786.33 397.5C2796.37 397.5 2804.5 405.634 2804.5 415.667L2804.5 488.333C2804.5 498.366 2796.37 506.5 2786.33 506.5L2256.67 506.5C2246.63 506.5 2238.5 498.366 2238.5 488.333Z" stroke="#0F9ED5" stroke-width="4.58333" stroke-miterlimit="8" fill="#DCEAF7" fill-rule="evenodd"/><text font-family="Segoe UI Semibold,Segoe UI Semibold_MSFontService,sans-serif" font-weight="600" font-size="41" transform="matrix(1 0 0 1 2344.41 467)">Fetch a Workspace</text><path d="M2238.5 733.5 2520.5 595.5 2802.5 733.5 2520.5 871.5Z" stroke="#E97132" stroke-width="4.58333" stroke-miterlimit="8" fill="#FBE3D6" fill-rule="evenodd"/><text font-family="Segoe UI Semibold,Segoe UI Semibold_MSFontService,sans-serif" font-weight="600" font-size="41" transform="matrix(1 0 0 1 2416.13 723)">Workspace </text><text font-family="Segoe UI Semibold,Segoe UI Semibold_MSFontService,sans-serif" font-weight="600" font-size="41" transform="matrix(1 0 0 1 2468.26 773)">Exists</text><path d="M2238.5 1028.67C2238.5 1013.11 2251.11 1000.5 2266.67 1000.5L2774.33 1000.5C2789.89 1000.5 2802.5 1013.11 2802.5 1028.67L2802.5 1141.33C2802.5 1156.89 2789.89 1169.5 2774.33 1169.5L2266.67 1169.5C2251.11 1169.5 2238.5 1156.89 2238.5 1141.33Z" stroke="#0F9ED5" stroke-width="4.58333" stroke-miterlimit="8" fill="#DCEAF7" fill-rule="evenodd"/><text font-family="Segoe UI Semibold,Segoe UI Semibold_MSFontService,sans-serif" font-weight="600" font-size="41" transform="matrix(1 0 0 1 2366.87 1075)">Search for Large </text><text font-family="Segoe UI Semibold,Segoe UI Semibold_MSFontService,sans-serif" font-weight="600" font-size="41" transform="matrix(1 0 0 1 2290.37 1125)">Semantic Models (LSMs)</text><path d="M2331.5 1396.5 2520.5 1258.5 2709.5 1396.5 2520.5 1534.5Z" stroke="#E97132" stroke-width="4.58333" stroke-miterlimit="8" fill="#FBE3D6" fill-rule="evenodd"/><text font-family="Segoe UI Semibold,Segoe UI Semibold_MSFontService,sans-serif" font-weight="600" font-size="41" transform="matrix(1 0 0 1 2470.55 1386)">LSMs </text><text font-family="Segoe UI Semibold,Segoe UI Semibold_MSFontService,sans-serif" font-weight="600" font-size="41" transform="matrix(1 0 0 1 2460.81 1436)">Found</text><path d="M2228.5 1690.67C2228.5 1680.63 2236.63 1672.5 2246.67 1672.5L2800.33 1672.5C2810.37 1672.5 2818.5 1680.63 2818.5 1690.67L2818.5 1763.33C2818.5 1773.37 2810.37 1781.5 2800.33 1781.5L2246.67 1781.5C2236.63 1781.5 2228.5 1773.37 2228.5 1763.33Z" stroke="#0F9ED5" stroke-width="4.58333" stroke-miterlimit="8" fill="#215F9A" fill-rule="evenodd"/><text fill="#FFFFFF" font-family="Segoe UI Semibold,Segoe UI Semibold_MSFontService,sans-serif" font-weight="600" font-size="41" transform="matrix(1 0 0 1 2280.79 1742)">Subprocess: Process LSMs</text><path d="M1522.5 1028.67C1522.5 1013.11 1535.11 1000.5 1550.67 1000.5L2058.33 1000.5C2073.89 1000.5 2086.5 1013.11 2086.5 1028.67L2086.5 1141.33C2086.5 1156.89 2073.89 1169.5 2058.33 1169.5L1550.67 1169.5C1535.11 1169.5 1522.5 1156.89 1522.5 1141.33Z" stroke="#0F9ED5" stroke-width="4.58333" stroke-miterlimit="8" fill="#DCEAF7" fill-rule="evenodd"/><text font-family="Segoe UI Semibold,Segoe UI Semibold_MSFontService,sans-serif" font-weight="600" font-size="41" transform="matrix(1 0 0 1 1599.2 1075)">Move Workspace to a </text><text font-family="Segoe UI Semibold,Segoe UI Semibold_MSFontService,sans-serif" font-weight="600" font-size="41" transform="matrix(1 0 0 1 1675.67 1125)">New Capacity</text><path d="M3.43726-0.0402741 4.21067 65.9671-2.66386 66.0476-3.43726 0.0402741ZM14.4688 61.2632 1.0419 88.9224-13.0294 61.5854Z" fill="#156082" transform="matrix(-1 0 0 1 2521.54 506.5)"/><path d="M2523.94 871.5 2523.94 977.358 2517.06 977.358 2517.06 871.5ZM2534.25 972.775 2520.5 1000.27 2506.75 972.775Z" fill="#156082"/><path d="M2523.94 1169.5 2523.94 1235.51 2517.06 1235.51 2517.06 1169.5ZM2534.25 1230.92 2520.5 1258.42 2506.75 1230.92Z" fill="#156082"/><path d="M0 3.4375-435.104 3.4375-431.666 0-431.666 809.501-435.104 806.064 282.15 806.064 278.712 809.501 278.712 749.918 285.587 749.918 285.587 812.939-438.541 812.939-438.541-3.4375 0-3.4375ZM268.4 754.501 282.15 727.001 295.9 754.501Z" fill="#156082" transform="matrix(1 -1.22465e-16 -1.22465e-16 -1 2238.5 733.502)"/><path d="M2243.41 2401.81 1412.06 2401.81 1412.06 2154.42 1418.94 2154.42 1418.94 2398.37 1415.5 2394.93 2243.41 2394.93ZM1401.75 2159 1415.5 2131.5 1429.25 2159Z" fill="#156082"/><text font-family="Segoe UI Semibold,Segoe UI Semibold_MSFontService,sans-serif" font-weight="600" font-size="41" transform="matrix(1 0 0 1 2563.93 939)">Yes</text><text font-family="Segoe UI Semibold,Segoe UI Semibold_MSFontService,sans-serif" font-weight="600" font-size="41" transform="matrix(1 0 0 1 2563.93 1590)">Yes</text><text font-family="Segoe UI Semibold,Segoe UI Semibold_MSFontService,sans-serif" font-weight="600" font-size="41" transform="matrix(1 0 0 1 2168.72 686)">No</text><text font-family="Segoe UI Semibold,Segoe UI Semibold_MSFontService,sans-serif" font-weight="600" font-size="41" transform="matrix(1 0 0 1 2239.22 1386)">No</text><path d="M2228.5 2047 2523.5 1908.5 2818.5 2047 2523.5 2185.5Z" stroke="#E97132" stroke-width="4.58333" stroke-miterlimit="8" fill="#FBE3D6" fill-rule="evenodd"/><text font-family="Segoe UI Semibold,Segoe UI Semibold_MSFontService,sans-serif" font-weight="600" font-size="41" transform="matrix(1 0 0 1 2418 2037)">Conversion</text><text font-family="Segoe UI Semibold,Segoe UI Semibold_MSFontService,sans-serif" font-weight="600" font-size="41" transform="matrix(1 0 0 1 2426.59 2087)">Errors flag</text><path d="M2526.94 1781.5 2526.94 1885.92 2520.06 1885.92 2520.06 1781.5ZM2537.25 1881.34 2523.5 1908.84 2509.75 1881.34Z" fill="#156082"/><text font-family="Segoe UI Semibold,Segoe UI Semibold_MSFontService,sans-serif" font-weight="600" font-size="41" transform="matrix(1 0 0 1 2559.36 2250)">0</text><text font-family="Segoe UI Semibold,Segoe UI Semibold_MSFontService,sans-serif" font-weight="600" font-size="41" transform="matrix(1 0 0 1 2158.78 2018)">1</text><path d="M1133.5 1990.67C1133.5 1975.11 1146.11 1962.5 1161.67 1962.5L1669.33 1962.5C1684.89 1962.5 1697.5 1975.11 1697.5 1990.67L1697.5 2103.33C1697.5 2118.89 1684.89 2131.5 1669.33 2131.5L1161.67 2131.5C1146.11 2131.5 1133.5 2118.89 1133.5 2103.33Z" stroke="#0F9ED5" stroke-width="4.58333" stroke-miterlimit="8" fill="#DCEAF7" fill-rule="evenodd"/><text font-family="Segoe UI Semibold,Segoe UI Semibold_MSFontService,sans-serif" font-weight="600" font-size="41" transform="matrix(1 0 0 1 1174.95 2037)">Convert Semantic Models </text><text font-family="Segoe UI Semibold,Segoe UI Semibold_MSFontService,sans-serif" font-weight="600" font-size="41" transform="matrix(1 0 0 1 1290.97 2087)">back to LSMs</text><path d="M2243.5 2341.83C2243.5 2326.19 2256.19 2313.5 2271.83 2313.5L2779.17 2313.5C2794.81 2313.5 2807.5 2326.19 2807.5 2341.83L2807.5 2455.17C2807.5 2470.81 2794.81 2483.5 2779.17 2483.5L2271.83 2483.5C2256.19 2483.5 2243.5 2470.81 2243.5 2455.17Z" stroke="#0F9ED5" stroke-width="4.58333" stroke-miterlimit="8" fill="#DCEAF7" fill-rule="evenodd"/><text font-family="Segoe UI Semibold,Segoe UI Semibold_MSFontService,sans-serif" font-weight="600" font-size="41" transform="matrix(1 0 0 1 2320.81 2389)">Move Workspace to a </text><text font-family="Segoe UI Semibold,Segoe UI Semibold_MSFontService,sans-serif" font-weight="600" font-size="41" transform="matrix(1 0 0 1 2397.29 2439)">New Capacity</text><path d="M1801.06 1000.33 1801.06-79.4347 2524.03-79.4347 2524.03-16.4168 2517.16-16.4168 2517.16-75.9972 2520.6-72.5597 1804.5-72.5597 1807.94-75.9972 1807.94 1000.33ZM2534.35-21.0001 2520.6 6.49988 2506.85-21.0001Z" fill="#156082"/><path d="M2523.94 1534.42 2526.69 1649.68 2519.82 1649.85 2517.06 1534.58ZM2536.89 1644.86 2523.81 1672.68 2509.4 1645.51Z" fill="#156082"/><path d="M2526.94 2185.44 2528.76 2291.35 2521.88 2291.47 2520.06 2185.56ZM2538.99 2286.59 2525.72 2314.32 2511.49 2287.06Z" fill="#156082"/><path d="M2212.5 144.5 2520.5 6.50003 2828.5 144.5 2520.5 282.5Z" stroke="#E97132" stroke-width="4.58333" stroke-miterlimit="8" fill="#FBE3D6" fill-rule="evenodd"/><text font-family="Segoe UI Semibold,Segoe UI Semibold_MSFontService,sans-serif" font-weight="600" font-size="41" transform="matrix(1 0 0 1 2495.2 109)">All </text><text font-family="Segoe UI Semibold,Segoe UI Semibold_MSFontService,sans-serif" font-weight="600" font-size="41" transform="matrix(1 0 0 1 2407.25 159)">Workspaces </text><text font-family="Segoe UI Semibold,Segoe UI Semibold_MSFontService,sans-serif" font-weight="600" font-size="41" transform="matrix(1 0 0 1 2426.15 208)">Processed</text><path d="M2523.94 282.469 2524.77 374.582 2517.9 374.644 2517.06 282.531ZM2535.04 369.906 2521.54 397.529 2507.54 370.155Z" fill="#156082"/><path d="M2984.5 107.667C2984.5 97.6334 2992.63 89.4999 3002.67 89.4999L3620.33 89.4999C3630.37 89.4999 3638.5 97.6334 3638.5 107.667L3638.5 180.333C3638.5 190.366 3630.37 198.5 3620.33 198.5L3002.67 198.5C2992.63 198.5 2984.5 190.366 2984.5 180.333Z" stroke="#0F9ED5" stroke-width="4.58333" stroke-miterlimit="8" fill="#215F9A" fill-rule="evenodd"/><text fill="#FFFFFF" font-family="Segoe UI Semibold,Segoe UI Semibold_MSFontService,sans-serif" font-weight="600" font-size="41" transform="matrix(1 0 0 1 3023.27 159)">End: Go back to Main Program</text><path d="M2828.5 141.062 2961.19 141.063 2961.19 147.938 2828.5 147.937ZM2956.61 130.75 2984.11 144.5 2956.61 158.25Z" fill="#156082"/><path d="M1196.5 1649.5 1416 1511.5 1635.5 1649.5 1416 1787.5Z" stroke="#E97132" stroke-width="4.58333" stroke-miterlimit="8" fill="#FBE3D6" fill-rule="evenodd"/><text font-family="Segoe UI Semibold,Segoe UI Semibold_MSFontService,sans-serif" font-weight="600" font-size="41" transform="matrix(1 0 0 1 1353.41 1614)">Access</text><text font-family="Segoe UI Semibold,Segoe UI Semibold_MSFontService,sans-serif" font-weight="600" font-size="41" transform="matrix(1 0 0 1 1339.66 1664)">Granted </text><text font-family="Segoe UI Semibold,Segoe UI Semibold_MSFontService,sans-serif" font-weight="600" font-size="41" transform="matrix(1 0 0 1 1376.33 1713)">Flag</text><path d="M883.5 1241.83C883.5 1226.19 896.185 1213.5 911.834 1213.5L1294.17 1213.5C1309.81 1213.5 1322.5 1226.19 1322.5 1241.83L1322.5 1355.17C1322.5 1370.81 1309.81 1383.5 1294.17 1383.5L911.834 1383.5C896.185 1383.5 883.5 1370.81 883.5 1355.17Z" stroke="#0F9ED5" stroke-width="4.58333" stroke-miterlimit="8" fill="#DCEAF7" fill-rule="evenodd"/><text font-family="Segoe UI Semibold,Segoe UI Semibold_MSFontService,sans-serif" font-weight="600" font-size="41" transform="matrix(1 0 0 1 925.023 1289)">Revoke Workspace </text><text font-family="Segoe UI Semibold,Segoe UI Semibold_MSFontService,sans-serif" font-weight="600" font-size="41" transform="matrix(1 0 0 1 1041.05 1339)">Access</text><path d="M3.4375-7.0864e-06 3.43781 152.146-3.43719 152.146-3.4375 7.0864e-06ZM13.7503 147.563 0.000360892 175.063-13.7497 147.563Z" fill="#156082" transform="matrix(1 0 0 -1 1415.5 1962.56)"/><path d="M2.33902e-06-3.4375 507.462-3.43715 507.462 3.43785-2.33902e-06 3.4375ZM502.879-13.7497 530.379 0.000360892 502.879 13.7503Z" fill="#156082" transform="matrix(-1 0 0 1 2227.88 2046.5)"/><path d="M1412.06 1511.39 1412.06-79.4348 2523.48-79.4348 2523.48-16.4166 2516.6-16.4166 2516.6-75.9973 2520.04-72.5598 1415.5-72.5598 1418.94-75.9973 1418.94 1511.39ZM2533.79-21 2520.04 6.5 2506.29-21Z" fill="#156082"/><path d="M1196.43 1652.63 1100.06 1652.63 1100.06 1406.42 1106.94 1406.42 1106.94 1649.19 1103.5 1645.76 1196.43 1645.76ZM1089.75 1411 1103.5 1383.5 1117.25 1411Z" fill="#156082"/><path d="M1100.06 1213.54 1100.06 961.062 1391.91 961.062 1391.91 967.938 1103.5 967.938 1106.94 964.5 1106.94 1213.54ZM1387.33 950.75 1414.83 964.5 1387.33 978.25Z" fill="#156082"/><text font-family="Segoe UI Semibold,Segoe UI Semibold_MSFontService,sans-serif" font-weight="600" font-size="41" transform="matrix(1 0 0 1 1168.85 1612)">1</text><text font-family="Segoe UI Semibold,Segoe UI Semibold_MSFontService,sans-serif" font-weight="600" font-size="41" transform="matrix(1 0 0 1 1449.25 1469)">0</text><text font-family="Segoe UI Semibold,Segoe UI Semibold_MSFontService,sans-serif" font-weight="600" font-size="41" transform="matrix(1 0 0 1 2559.6 344)">No</text><text font-family="Segoe UI Semibold,Segoe UI Semibold_MSFontService,sans-serif" font-weight="600" font-size="41" transform="matrix(1 0 0 1 2832.78 118)">Yes</text><path d="M2342.32 1416.28 1801.06 1416.28 1801.06 1192.42 1807.94 1192.42 1807.94 1412.84 1804.5 1409.4 2342.32 1409.4ZM1790.75 1197 1804.5 1169.5 1818.25 1197Z" fill="#156082"/></g></svg>