<svg width="2084" height="2251" xmlns="http://www.w3.org/2000/svg" xmlns:xlink="http://www.w3.org/1999/xlink" xml:space="preserve" overflow="hidden"><g transform="translate(-2200 11)"><rect x="2200" y="-11" width="2084" height="2251" fill="#FFFFFF"/><path d="M2747.5 985.667C2747.5 975.634 2755.63 967.5 2765.67 967.5L3294.33 967.5C3304.37 967.5 3312.5 975.634 3312.5 985.667L3312.5 1058.33C3312.5 1068.37 3304.37 1076.5 3294.33 1076.5L2765.67 1076.5C2755.63 1076.5 2747.5 1068.37 2747.5 1058.33Z" stroke="#0F9ED5" stroke-width="4.58333" stroke-miterlimit="8" fill="#DCEAF7" fill-rule="evenodd"/><text font-family="Segoe UI Semibold,Segoe UI Semibold_MSFontService,sans-serif" font-weight="600" font-size="41" transform="matrix(1 0 0 1 2821.55 1037)">Fetch Semantic Model</text><path d="M2699.5 181.5 3030 43.5002 3360.5 181.5 3030 319.5Z" stroke="#E97132" stroke-width="4.58333" stroke-miterlimit="8" fill="#FBE3D6" fill-rule="evenodd"/><text font-family="Segoe UI Semibold,Segoe UI Semibold_MSFontService,sans-serif" font-weight="600" font-size="41" transform="matrix(1 0 0 1 2949.89 147)">User has </text><text font-family="Segoe UI Semibold,Segoe UI Semibold_MSFontService,sans-serif" font-weight="600" font-size="41" transform="matrix(1 0 0 1 2911.21 197)">direct access </text><text font-family="Segoe UI Semibold,Segoe UI Semibold_MSFontService,sans-serif" font-weight="600" font-size="41" transform="matrix(1 0 0 1 2900.32 246)">to Workspace</text><path d="M2747.5 1287.67C2747.5 1274.32 2758.32 1263.5 2771.67 1263.5L3288.33 1263.5C3301.68 1263.5 3312.5 1274.32 3312.5 1287.67L3312.5 1384.33C3312.5 1397.68 3301.68 1408.5 3288.33 1408.5L2771.67 1408.5C2758.32 1408.5 2747.5 1397.68 2747.5 1384.33Z" stroke="#0F9ED5" stroke-width="4.58333" stroke-miterlimit="8" fill="#DCEAF7" fill-rule="evenodd"/><text font-family="Segoe UI Semibold,Segoe UI Semibold_MSFontService,sans-serif" font-weight="600" font-size="41" transform="matrix(1 0 0 1 2856.48 1326)">Convert to a Small </text><text font-family="Segoe UI Semibold,Segoe UI Semibold_MSFontService,sans-serif" font-weight="600" font-size="41" transform="matrix(1 0 0 1 2816.68 1376)">Semantic Model (SSM)</text><path d="M2747.5 1732.5 3030 1594.5 3312.5 1732.5 3030 1870.5Z" stroke="#E97132" stroke-width="4.58333" stroke-miterlimit="8" fill="#FBE3D6" fill-rule="evenodd"/><text font-family="Segoe UI Semibold,Segoe UI Semibold_MSFontService,sans-serif" font-weight="600" font-size="41" transform="matrix(1 0 0 1 2924.39 1722)">Conversion </text><text font-family="Segoe UI Semibold,Segoe UI Semibold_MSFontService,sans-serif" font-weight="600" font-size="41" transform="matrix(1 0 0 1 2933.55 1772)">Successful</text><path d="M2699.5 643.5 3030 505.5 3360.5 643.5 3030 781.5Z" stroke="#E97132" stroke-width="4.58333" stroke-miterlimit="8" fill="#FBE3D6" fill-rule="evenodd"/><text font-family="Segoe UI Semibold,Segoe UI Semibold_MSFontService,sans-serif" font-weight="600" font-size="41" transform="matrix(1 0 0 1 2930.12 634)">All Models </text><text font-family="Segoe UI Semibold,Segoe UI Semibold_MSFontService,sans-serif" font-weight="600" font-size="41" transform="matrix(1 0 0 1 2935.85 684)">Processed</text><path d="M3642.5 297.667C3642.5 287.634 3650.63 279.5 3660.67 279.5L4188.33 279.5C4198.37 279.5 4206.5 287.634 4206.5 297.667L4206.5 370.333C4206.5 380.366 4198.37 388.5 4188.33 388.5L3660.67 388.5C3650.63 388.5 3642.5 380.366 3642.5 370.333Z" stroke="#0F9ED5" stroke-width="4.58333" stroke-miterlimit="8" fill="#DCEAF7" fill-rule="evenodd"/><text font-family="Segoe UI Semibold,Segoe UI Semibold_MSFontService,sans-serif" font-weight="600" font-size="41" transform="matrix(1 0 0 1 3719.91 348)">Set </text><text font-family="Segoe UI Semibold,Segoe UI Semibold_MSFontService,sans-serif" font-weight="600" font-size="41" text-decoration="underline" transform="matrix(1 0 0 1 3790.38 348)">accessGranted = 1</text><path d="M3642.5 145.5C3642.5 135.559 3650.56 127.5 3660.5 127.5L4188.5 127.5C4198.44 127.5 4206.5 135.559 4206.5 145.5L4206.5 217.5C4206.5 227.441 4198.44 235.5 4188.5 235.5L3660.5 235.5C3650.56 235.5 3642.5 227.441 3642.5 217.5Z" stroke="#0F9ED5" stroke-width="4.58333" stroke-miterlimit="8" fill="#DCEAF7" fill-rule="evenodd"/><text font-family="Segoe UI Semibold,Segoe UI Semibold_MSFontService,sans-serif" font-weight="600" font-size="41" transform="matrix(1 0 0 1 3694.41 196)">Grant Workspace Access</text><path d="M3928.29 388.5 3928.29 426.656 3030.5 426.656 3033.94 423.219 3033.94 483.148 3027.06 483.148 3027.06 419.781 3924.85 419.781 3921.41 423.219 3921.41 388.5ZM3044.25 478.564 3030.5 506.064 3016.75 478.564Z" fill="#156082"/><path d="M3033.94 319.5 3033.94 482.763 3027.06 482.763 3027.06 319.5ZM3044.25 478.18 3030.5 505.68 3016.75 478.18Z" fill="#156082"/><path d="M3927.94 235.5 3927.94 255.899 3921.06 255.899 3921.06 235.5ZM3938.25 251.316 3924.5 278.816 3910.75 251.316Z" fill="#156082"/><path d="M3033.94 781.5 3033.94 944.763 3027.06 944.763 3027.06 781.5ZM3044.25 940.18 3030.5 967.68 3016.75 940.18Z" fill="#156082"/><path d="M3033.94 1076.5 3033.94 1239.76 3027.06 1239.76 3027.06 1076.5ZM3044.25 1235.18 3030.5 1262.68 3016.75 1235.18Z" fill="#156082"/><path d="M3033.94 1408.5 3033.94 1571.76 3027.06 1571.76 3027.06 1408.5ZM3044.25 1567.18 3030.5 1594.68 3016.75 1567.18Z" fill="#156082"/><path d="M3033.94 1870.5 3033.94 2033.76 3027.06 2033.76 3027.06 1870.5ZM3044.25 2029.18 3030.5 2056.68 3016.75 2029.18Z" fill="#156082"/><path d="M3552.5 853.167C3552.5 839.544 3563.54 828.5 3577.17 828.5L4181.83 828.5C4195.46 828.5 4206.5 839.544 4206.5 853.167L4206.5 951.833C4206.5 965.456 4195.46 976.5 4181.83 976.5L3577.17 976.5C3563.54 976.5 3552.5 965.456 3552.5 951.833Z" stroke="#0F9ED5" stroke-width="4.58333" stroke-miterlimit="8" fill="#215F9A" fill-rule="evenodd"/><text fill="#FFFFFF" font-family="Segoe UI Semibold,Segoe UI Semibold_MSFontService,sans-serif" font-weight="600" font-size="41" transform="matrix(1 0 0 1 3622.1 893)">End: Go back </text><text fill="#FFFFFF" font-family="Segoe UI Semibold,Segoe UI Semibold_MSFontService,sans-serif" font-weight="600" font-size="41" transform="matrix(1 0 0 1 3877.05 893)">to</text><text fill="#FFFFFF" font-family="Segoe UI Semibold,Segoe UI Semibold_MSFontService,sans-serif" font-weight="600" font-size="41" transform="matrix(1 0 0 1 3928.04 893)">Workspace</text><text fill="#FFFFFF" font-family="Segoe UI Semibold,Segoe UI Semibold_MSFontService,sans-serif" font-weight="600" font-size="41" transform="matrix(1 0 0 1 3778.51 943)">Processin</text><text fill="#FFFFFF" font-family="Segoe UI Semibold,Segoe UI Semibold_MSFontService,sans-serif" font-weight="600" font-size="41" transform="matrix(1 0 0 1 3954.39 943)">g</text><path d="M3360.5 178.062 3619.73 178.063 3619.73 184.938 3360.5 184.938ZM3615.15 167.75 3642.65 181.5 3615.15 195.25Z" fill="#156082"/><text font-family="Segoe UI Semibold,Segoe UI Semibold_MSFontService,sans-serif" font-weight="600" font-size="41" transform="matrix(1 0 0 1 3072.76 388)">Yes</text><text font-family="Segoe UI Semibold,Segoe UI Semibold_MSFontService,sans-serif" font-weight="600" font-size="41" transform="matrix(1 0 0 1 3369 616)">Yes</text><text font-family="Segoe UI Semibold,Segoe UI Semibold_MSFontService,sans-serif" font-weight="600" font-size="41" transform="matrix(1 0 0 1 2667.67 1705)">Yes</text><text font-family="Segoe UI Semibold,Segoe UI Semibold_MSFontService,sans-serif" font-weight="600" font-size="41" transform="matrix(1 0 0 1 3070.71 1920)">No</text><text font-family="Segoe UI Semibold,Segoe UI Semibold_MSFontService,sans-serif" font-weight="600" font-size="41" transform="matrix(1 0 0 1 3371.07 158)">No</text><text font-family="Segoe UI Semibold,Segoe UI Semibold_MSFontService,sans-serif" font-weight="600" font-size="41" transform="matrix(1 0 0 1 3060.01 836)">No</text><path d="M3642.5 596.667C3642.5 583.32 3653.32 572.5 3666.67 572.5L4182.33 572.5C4195.68 572.5 4206.5 583.32 4206.5 596.667L4206.5 693.333C4206.5 706.68 4195.68 717.5 4182.33 717.5L3666.67 717.5C3653.32 717.5 3642.5 706.68 3642.5 693.333Z" stroke="#0F9ED5" stroke-width="4.58333" stroke-miterlimit="8" fill="#DCEAF7" fill-rule="evenodd"/><text font-family="Segoe UI Semibold,Segoe UI Semibold_MSFontService,sans-serif" font-weight="600" font-size="41" transform="matrix(1 0 0 1 3706.44 635)">Wait till all conversions </text><text font-family="Segoe UI Semibold,Segoe UI Semibold_MSFontService,sans-serif" font-weight="600" font-size="41" transform="matrix(1 0 0 1 3798.11 685)">are Complete</text><path d="M2747.5 2067.67C2747.5 2057.63 2755.63 2049.5 2765.67 2049.5L3294.33 2049.5C3304.37 2049.5 3312.5 2057.63 3312.5 2067.67L3312.5 2140.33C3312.5 2150.37 3304.37 2158.5 3294.33 2158.5L2765.67 2158.5C2755.63 2158.5 2747.5 2150.37 2747.5 2140.33Z" stroke="#0F9ED5" stroke-width="4.58333" stroke-miterlimit="8" fill="#DCEAF7" fill-rule="evenodd"/><text font-family="Segoe UI Semibold,Segoe UI Semibold_MSFontService,sans-serif" font-weight="600" font-size="41" transform="matrix(1 0 0 1 2803.22 2119)">Set </text><text font-family="Segoe UI Semibold,Segoe UI Semibold_MSFontService,sans-serif" font-weight="600" font-size="41" text-decoration="underline" transform="matrix(1 0 0 1 2873.68 2119)">conversionErrors = 1</text><path d="M0 3.4375-333.733 3.4375-330.295 0-330.295 1312.54-333.733 1309.11 282.15 1309.11 278.712 1312.54 278.712 1249.63 285.587 1249.63 285.587 1315.98-337.17 1315.98-337.17-3.4375 0-3.4375ZM268.4 1254.21 282.15 1226.71 295.9 1254.21Z" fill="#156082" transform="matrix(1 -1.22465e-16 -1.22465e-16 -1 2747.5 1732.21)"/><path d="M2747.97 2107.28 2410.06 2107.28 2410.06 1760.42 2416.94 1760.42 2416.94 2103.84 2413.5 2100.41 2747.97 2100.41ZM2399.75 1765 2413.5 1737.5 2427.25 1765Z" fill="#156082"/><path d="M3360.52 640.063 3619.75 641.599 3619.71 648.474 3360.48 646.937ZM3615.23 631.26 3642.65 645.172 3615.07 658.759Z" fill="#156082"/><path d="M3927.94 717.5 3927.94 805.151 3921.06 805.151 3921.06 717.5ZM3938.25 800.568 3924.5 828.068 3910.75 800.568Z" fill="#156082"/></g></svg>