<svg width="2392" height="2250" xmlns="http://www.w3.org/2000/svg" xmlns:xlink="http://www.w3.org/1999/xlink" xml:space="preserve" overflow="hidden"><defs><clipPath id="clip0"><rect x="1875" y="0" width="2392" height="2250"/></clipPath></defs><g clip-path="url(#clip0)" transform="translate(-1875 0)"><rect x="1875" y="0" width="2392" height="2250" fill="#FFFFFF"/><path d="M2747.5 985.667C2747.5 975.634 2755.63 967.5 2765.67 967.5L3294.33 967.5C3304.37 967.5 3312.5 975.634 3312.5 985.667L3312.5 1058.33C3312.5 1068.37 3304.37 1076.5 3294.33 1076.5L2765.67 1076.5C2755.63 1076.5 2747.5 1068.37 2747.5 1058.33Z" stroke="#0F9ED5" stroke-width="4.58333" stroke-miterlimit="8" fill="#DCEAF7" fill-rule="evenodd"/><text font-family="Segoe UI Semibold,Segoe UI Semibold_MSFontService,sans-serif" font-weight="600" font-size="41" transform="matrix(1 0 0 1 2821.55 1037)">Fetch Semantic Model</text><path d="M2699.5 181.5 3030 43.5002 3360.5 181.5 3030 319.5Z" stroke="#E97132" stroke-width="4.58333" stroke-miterlimit="8" fill="#FBE3D6" fill-rule="evenodd"/><text font-family="Segoe UI Semibold,Segoe UI Semibold_MSFontService,sans-serif" font-weight="600" font-size="41" transform="matrix(1 0 0 1 2949.89 147)">User has </text><text font-family="Segoe UI Semibold,Segoe UI Semibold_MSFontService,sans-serif" font-weight="600" font-size="41" transform="matrix(1 0 0 1 2911.21 197)">direct access </text><text font-family="Segoe UI Semibold,Segoe UI Semibold_MSFontService,sans-serif" font-weight="600" font-size="41" transform="matrix(1 0 0 1 2900.32 246)">to Workspace</text><path d="M2747.5 1287.67C2747.5 1274.32 2758.32 1263.5 2771.67 1263.5L3288.33 1263.5C3301.68 1263.5 3312.5 1274.32 3312.5 1287.67L3312.5 1384.33C3312.5 1397.68 3301.68 1408.5 3288.33 1408.5L2771.67 1408.5C2758.32 1408.5 2747.5 1397.68 2747.5 1384.33Z" stroke="#0F9ED5" stroke-width="4.58333" stroke-miterlimit="8" fill="#DCEAF7" fill-rule="evenodd"/><text font-family="Segoe UI Semibold,Segoe UI Semibold_MSFontService,sans-serif" font-weight="600" font-size="41" transform="matrix(1 0 0 1 2856.48 1326)">Convert to a Small </text><text font-family="Segoe UI Semibold,Segoe UI Semibold_MSFontService,sans-serif" font-weight="600" font-size="41" transform="matrix(1 0 0 1 2816.68 1376)">Semantic Model (SSM)</text><path d="M2747.5 1732.5 3030 1594.5 3312.5 1732.5 3030 1870.5Z" stroke="#E97132" stroke-width="4.58333" stroke-miterlimit="8" fill="#FBE3D6" fill-rule="evenodd"/><text font-family="Segoe UI Semibold,Segoe UI Semibold_MSFontService,sans-serif" font-weight="600" font-size="41" transform="matrix(1 0 0 1 2924.39 1722)">Conversion </text><text font-family="Segoe UI Semibold,Segoe UI Semibold_MSFontService,sans-serif" font-weight="600" font-size="41" transform="matrix(1 0 0 1 2933.55 1772)">Successful</text><path d="M2035.5 1695.67C2035.5 1685.63 2043.63 1677.5 2053.67 1677.5L2581.33 1677.5C2591.37 1677.5 2599.5 1685.63 2599.5 1695.67L2599.5 1768.33C2599.5 1778.37 2591.37 1786.5 2581.33 1786.5L2053.67 1786.5C2043.63 1786.5 2035.5 1778.37 2035.5 1768.33Z" stroke="#0F9ED5" stroke-width="4.58333" stroke-miterlimit="8" fill="#DCEAF7" fill-rule="evenodd"/><text font-family="Segoe UI Semibold,Segoe UI Semibold_MSFontService,sans-serif" font-weight="600" font-size="41" transform="matrix(1 0 0 1 2090.96 1747)">Set </text><text font-family="Segoe UI Semibold,Segoe UI Semibold_MSFontService,sans-serif" font-weight="600" font-size="41" text-decoration="underline" transform="matrix(1 0 0 1 2161.43 1747)">conversionErrors = 1</text><path d="M2747.5 2080.67C2747.5 2067.32 2758.32 2056.5 2771.67 2056.5L3288.33 2056.5C3301.68 2056.5 3312.5 2067.32 3312.5 2080.67L3312.5 2177.33C3312.5 2190.68 3301.68 2201.5 3288.33 2201.5L2771.67 2201.5C2758.32 2201.5 2747.5 2190.68 2747.5 2177.33Z" stroke="#0F9ED5" stroke-width="4.58333" stroke-miterlimit="8" fill="#DCEAF7" fill-rule="evenodd"/><text font-family="Segoe UI Semibold,Segoe UI Semibold_MSFontService,sans-serif" font-weight="600" font-size="41" transform="matrix(1 0 0 1 2812.1 2119)">Wait till all conversions </text><text font-family="Segoe UI Semibold,Segoe UI Semibold_MSFontService,sans-serif" font-weight="600" font-size="41" transform="matrix(1 0 0 1 2903.76 2169)">are Complete</text><path d="M2699.5 643.5 3030 505.5 3360.5 643.5 3030 781.5Z" stroke="#E97132" stroke-width="4.58333" stroke-miterlimit="8" fill="#FBE3D6" fill-rule="evenodd"/><text font-family="Segoe UI Semibold,Segoe UI Semibold_MSFontService,sans-serif" font-weight="600" font-size="41" transform="matrix(1 0 0 1 2930.12 634)">All Models </text><text font-family="Segoe UI Semibold,Segoe UI Semibold_MSFontService,sans-serif" font-weight="600" font-size="41" transform="matrix(1 0 0 1 2935.85 684)">Processed</text><path d="M3642.5 297.667C3642.5 287.634 3650.63 279.5 3660.67 279.5L4188.33 279.5C4198.37 279.5 4206.5 287.634 4206.5 297.667L4206.5 370.333C4206.5 380.366 4198.37 388.5 4188.33 388.5L3660.67 388.5C3650.63 388.5 3642.5 380.366 3642.5 370.333Z" stroke="#0F9ED5" stroke-width="4.58333" stroke-miterlimit="8" fill="#DCEAF7" fill-rule="evenodd"/><text font-family="Segoe UI Semibold,Segoe UI Semibold_MSFontService,sans-serif" font-weight="600" font-size="41" transform="matrix(1 0 0 1 3719.91 348)">Set </text><text font-family="Segoe UI Semibold,Segoe UI Semibold_MSFontService,sans-serif" font-weight="600" font-size="41" text-decoration="underline" transform="matrix(1 0 0 1 3790.38 348)">accessGranted = 1</text><path d="M3642.5 145.5C3642.5 135.559 3650.56 127.5 3660.5 127.5L4188.5 127.5C4198.44 127.5 4206.5 135.559 4206.5 145.5L4206.5 217.5C4206.5 227.441 4198.44 235.5 4188.5 235.5L3660.5 235.5C3650.56 235.5 3642.5 227.441 3642.5 217.5Z" stroke="#0F9ED5" stroke-width="4.58333" stroke-miterlimit="8" fill="#DCEAF7" fill-rule="evenodd"/><text font-family="Segoe UI Semibold,Segoe UI Semibold_MSFontService,sans-serif" font-weight="600" font-size="41" transform="matrix(1 0 0 1 3694.41 196)">Grant Workspace Access</text><path d="M2314.06 1677.23 2314.06 419.561 3033.19 419.561 3033.19 482.584 3026.31 482.584 3026.31 422.999 3029.75 426.436 2317.5 426.436 2320.94 422.999 2320.94 1677.23ZM3043.5 478 3029.75 505.5 3016 478Z" fill="#156082"/><path d="M3928.29 388.5 3928.29 426.656 3030.5 426.656 3033.94 423.219 3033.94 483.148 3027.06 483.148 3027.06 419.781 3924.85 419.781 3921.41 423.219 3921.41 388.5ZM3044.25 478.564 3030.5 506.064 3016.75 478.564Z" fill="#156082"/><path d="M3033.94 319.5 3033.94 482.763 3027.06 482.763 3027.06 319.5ZM3044.25 478.18 3030.5 505.68 3016.75 478.18Z" fill="#156082"/><path d="M3927.94 235.5 3927.94 255.899 3921.06 255.899 3921.06 235.5ZM3938.25 251.316 3924.5 278.816 3910.75 251.316Z" fill="#156082"/><path d="M3033.94 781.5 3033.94 944.763 3027.06 944.763 3027.06 781.5ZM3044.25 940.18 3030.5 967.68 3016.75 940.18Z" fill="#156082"/><path d="M3033.94 1076.5 3033.94 1239.76 3027.06 1239.76 3027.06 1076.5ZM3044.25 1235.18 3030.5 1262.68 3016.75 1235.18Z" fill="#156082"/><path d="M3033.94 1408.5 3033.94 1571.76 3027.06 1571.76 3027.06 1408.5ZM3044.25 1567.18 3030.5 1594.68 3016.75 1567.18Z" fill="#156082"/><path d="M3033.94 1870.5 3033.94 2033.76 3027.06 2033.76 3027.06 1870.5ZM3044.25 2029.18 3030.5 2056.68 3016.75 2029.18Z" fill="#156082"/><path d="M2747.44 1735.47 2622.4 1735.02 2622.43 1728.14 2747.46 1728.59ZM2626.95 1745.35 2599.5 1731.5 2627.05 1717.85Z" fill="#156082"/><path d="M3552.5 607.667C3552.5 597.634 3560.63 589.5 3570.67 589.5L4188.33 589.5C4198.37 589.5 4206.5 597.634 4206.5 607.667L4206.5 680.333C4206.5 690.366 4198.37 698.499 4188.33 698.499L3570.67 698.499C3560.63 698.499 3552.5 690.366 3552.5 680.333Z" stroke="#0F9ED5" stroke-width="4.58333" stroke-miterlimit="8" fill="#215F9A" fill-rule="evenodd"/><text fill="#FFFFFF" font-family="Segoe UI Semibold,Segoe UI Semibold_MSFontService,sans-serif" font-weight="600" font-size="41" transform="matrix(1 0 0 1 3591.16 658)">End: Go back to Main Program</text><path d="M0.0024042-3.4375 169.038-3.31928 169.033 3.55572-0.0024042 3.4375ZM164.462-13.635 191.952 0.134252 164.443 13.865Z" fill="#156082" transform="matrix(1 0 0 -1 3360.5 643.634)"/><path d="M0 3.4375-780.086 3.4375-776.648 0-776.648 1706.01-780.086 1702.57 282.15 1702.57 278.712 1706.01 278.712 1646.42 285.587 1646.42 285.587 1709.44-783.523 1709.44-783.523-3.4375 0-3.4375ZM268.4 1651 282.15 1623.5 295.9 1651Z" fill="#156082" transform="matrix(1 -1.22465e-16 -1.22465e-16 -1 2747.5 2129)"/><path d="M3360.5 178.062 3619.73 178.063 3619.73 184.938 3360.5 184.938ZM3615.15 167.75 3642.65 181.5 3615.15 195.25Z" fill="#156082"/><text font-family="Segoe UI Semibold,Segoe UI Semibold_MSFontService,sans-serif" font-weight="600" font-size="41" transform="matrix(1 0 0 1 3072.76 388)">Yes</text><text font-family="Segoe UI Semibold,Segoe UI Semibold_MSFontService,sans-serif" font-weight="600" font-size="41" transform="matrix(1 0 0 1 3369 616)">Yes</text><text font-family="Segoe UI Semibold,Segoe UI Semibold_MSFontService,sans-serif" font-weight="600" font-size="41" transform="matrix(1 0 0 1 3072.76 1926)">Yes</text><text font-family="Segoe UI Semibold,Segoe UI Semibold_MSFontService,sans-serif" font-weight="600" font-size="41" transform="matrix(1 0 0 1 2679.54 1708)">No</text><text font-family="Segoe UI Semibold,Segoe UI Semibold_MSFontService,sans-serif" font-weight="600" font-size="41" transform="matrix(1 0 0 1 3371.07 158)">No</text><text font-family="Segoe UI Semibold,Segoe UI Semibold_MSFontService,sans-serif" font-weight="600" font-size="41" transform="matrix(1 0 0 1 3060.01 836)">No</text></g></svg>